<?xml version="1.0" encoding="UTF-8" standalone="no"?>
<svg
   viewBox="0 0 600 120"
   width="600"
   height="120"
   version="1.1"
   id="svg1"
   sodipodi:docname="kovina-wordmark-outlined.svg"
   inkscape:version="1.4.3 (0d15f75, 2025-12-25)"
   xmlns:inkscape="http://www.inkscape.org/namespaces/inkscape"
   xmlns:sodipodi="http://sodipodi.sourceforge.net/DTD/sodipodi-0.dtd"
   xmlns="http://www.w3.org/2000/svg"
   xmlns:svg="http://www.w3.org/2000/svg">
  <sodipodi:namedview
     id="namedview1"
     pagecolor="#ffffff"
     bordercolor="#000000"
     borderopacity="0.25"
     inkscape:showpageshadow="2"
     inkscape:pageopacity="0.0"
     inkscape:pagecheckerboard="0"
     inkscape:deskcolor="#d1d1d1"
     inkscape:zoom="1.6345952"
     inkscape:cx="399.48729"
     inkscape:cy="116.8485"
     inkscape:window-width="1436"
     inkscape:window-height="1681"
     inkscape:window-x="-9"
     inkscape:window-y="0"
     inkscape:window-maximized="0"
     inkscape:current-layer="svg1" />
  <defs
     id="defs1">
    <style
       id="style1">
      @import url('https://fonts.googleapis.com/css2?family=Inter:wght@900&amp;display=swap');
      text { font-family: 'Inter', 'Arial Black', sans-serif; font-weight: 900; }
    </style>
  </defs>
  <path
     d="m 99.525772,26.62252 h 21.234378 v 25.96875 l 22.26562,-25.96875 h 28.21875 L 146.21327,52.544395 172.36952,95.34127 H 146.21327 L 131.7289,67.075645 120.76015,78.56002 V 95.34127 H 99.525772 Z m 71.041878,34.40625 q 0,-16.828125 9.375,-26.203125 9.375,-9.375 26.10937,-9.375 17.15625,0 26.4375,9.234375 9.28125,9.1875 9.28125,25.78125 0,12.046875 -4.07812,19.78125 -4.03125,7.6875 -11.71875,12 -7.64063,4.265625 -19.07813,4.265625 -11.625,0 -19.26562,-3.703125 -7.59375,-3.703125 -12.32813,-11.71875 -4.73437,-8.015625 -4.73437,-20.0625 z m 21.23437,0.09375 q 0,10.40625 3.84375,14.953125 3.89063,4.546875 10.54688,4.546875 6.84375,0 10.59375,-4.453125 3.75,-4.453125 3.75,-15.984375 0,-9.703125 -3.9375,-14.15625 -3.89063,-4.5 -10.59375,-4.5 -6.42188,0 -10.3125,4.546875 -3.89063,4.546875 -3.89063,15.046875 z m 47.60438,-34.5 h 22.21875 L 277.0939,76.075645 292.32828,26.62252 h 21.5625 l -25.5,68.71875 h -23.01563 z m 79.4325,0 h 21.28125 V 95.34127 H 318.8389 Z m 33.77624,0 h 19.82813 l 25.875,38.015625 V 26.62252 h 20.01562 V 95.34127 H 398.31827 L 372.58389,57.606895 V 95.34127 h -19.96875 z m 118.29189,57.375 h -24.1875 L 443.3914,95.34127 H 421.68828 L 447.5164,26.62252 h 23.15625 l 25.82813,68.71875 H 474.28203 Z M 466.4539,69.138145 458.86015,44.43502 451.31328,69.138145 Z"
     id="text1"
     style="font-weight:900;font-size:96px;font-family:Inter, 'Arial Black', sans-serif;letter-spacing:-0.03em;fill:#111111"
     aria-label="KOVINA" />
</svg>
